<svg width="360" height="270" viewBox="0 0 360 270" fill="none" xmlns="http://www.w3.org/2000/svg">
<mask id="mask0_359_2" style="mask-type:alpha" maskUnits="userSpaceOnUse" x="0" y="0" width="360" height="270">
<rect width="360" height="270" rx="30" fill="#292A2D"/>
</mask>
<g mask="url(#mask0_359_2)">
<path d="M291.086 304.081H66.9141C35.4368 304.081 9.91919 278.563 9.91919 247.086V22.9141C9.91919 -8.56316 35.4368 -34.0808 66.9141 -34.0808H291.086C322.563 -34.0808 348.081 -8.56316 348.081 22.9141V247.086C348.081 278.563 322.563 304.081 291.086 304.081Z" fill="#F0E13D"/>
<path d="M207.665 173.141H227.498C236.789 173.141 244.351 165.579 244.351 156.288V82.9692L244.331 82.2888C244.244 71.3886 241.378 60.609 236.069 51.1132C234.302 47.9357 232.288 44.9324 230.025 42.1101C227.773 39.2979 225.276 36.66 222.571 34.2433C210.833 23.7085 195.699 17.7858 179.962 17.5511C179.657 17.5411 179.349 17.5411 179.044 17.5411C163.189 17.5411 147.908 23.4537 135.912 34.2433C130.522 39.0901 125.97 44.7481 122.377 51.0562C116.672 61.085 113.649 72.4679 113.649 83.9781V187.081C113.649 198.226 116.501 209.223 121.901 218.89C125.417 225.208 129.946 230.876 135.376 235.76C147.389 246.53 162.898 252.462 179.03 252.462H227.491C236.783 252.462 244.344 244.901 244.344 235.609V215.756C244.344 211.493 242.685 207.484 239.665 204.474C236.655 201.454 232.646 199.795 228.373 199.795H179.034C172.025 199.795 166.317 194.09 166.317 187.081V83.2642C166.317 76.5605 171.361 70.8556 177.807 70.2623C181.41 69.9372 184.866 71.0903 187.541 73.5203C189.92 75.6923 191.392 78.7124 191.637 81.9033H191.677L191.727 82.8921V157.209C191.73 165.995 198.877 173.141 207.665 173.141ZM177.998 55.2494C163.3 55.7622 151.334 68.449 151.334 83.5223V187.081C151.334 202.352 163.763 214.771 179.034 214.771H218.562C221.998 214.771 225.155 216.349 227.22 219.115C228.621 220.992 229.362 223.221 229.362 225.58V226.677C229.362 232.629 224.515 237.476 218.562 237.476H179.034C164.55 237.476 150.761 231.238 141.185 220.358C133.09 211.167 128.628 199.349 128.628 187.081V83.7502C128.628 71.1841 133.2 59.0705 141.483 49.6418C150.811 39.0197 164.138 32.7786 178.058 32.5339C178.363 32.5239 178.682 32.5239 178.997 32.5239C193.45 32.5239 207.229 38.7616 216.796 49.6418C224.9 58.8526 229.362 70.6579 229.362 82.8921V147.358C229.362 153.311 224.515 158.158 218.562 158.158H217.516C211.563 158.158 206.717 153.311 206.717 147.358V83.0765L206.626 82.2955C206.469 74.841 203.388 67.9127 197.948 62.7676C192.528 57.656 185.442 54.9813 177.998 55.2494Z" fill="black"/>
<path d="M284.439 84.2731V188.395C284.439 208.091 272.021 225.869 253.528 232.643C253.006 232.831 252.432 232.76 251.97 232.435C251.517 232.13 251.259 231.624 251.259 231.081V218.552C251.259 217.928 251.594 217.368 252.107 217.1C262.917 211.523 269.631 200.525 269.631 188.392V81.6151C269.631 66.0658 258.543 52.7087 243.272 49.8563C242.769 49.7658 242.343 49.4708 242.099 49.0451C239.652 44.8386 236.739 40.8901 233.441 37.317C232.968 36.7941 232.848 36.1137 233.126 35.4802C233.394 34.8567 233.964 34.4914 234.637 34.4914H234.668C262.109 34.4981 284.439 56.8281 284.439 84.2731Z" fill="black"/>
<path d="M88.3693 81.6151V188.392C88.3693 203.921 99.4472 217.278 114.698 220.13C115.201 220.228 115.627 220.526 115.871 220.948C118.308 225.135 121.221 229.083 124.529 232.676C125.002 233.189 125.122 233.88 124.844 234.513C124.569 235.137 124.006 235.502 123.322 235.502C95.8775 235.502 73.5575 213.182 73.5575 185.737V84.2631C73.5575 56.8181 95.8875 34.4981 123.322 34.4981H123.845C124.526 34.4981 125.099 34.8635 125.367 35.4869C125.642 36.1204 125.525 36.8008 125.052 37.3237C121.764 40.8867 118.841 44.8084 116.364 48.9815C116.116 49.4071 115.684 49.7021 115.171 49.7826C99.6416 52.454 88.3693 65.8413 88.3693 81.6151Z" fill="black"/>
</g>
</svg>
